<svg width="35" height="35" viewBox="0 0 35 35" fill="none" xmlns="http://www.w3.org/2000/svg">
<mask id="mask0_7775_30" style="mask-type:alpha" maskUnits="userSpaceOnUse" x="1" y="1" width="32" height="33">
<path d="M20.8944 10.3171C21.8234 10.3171 22.7144 9.94808 23.3713 9.29118C24.0282 8.63428 24.3972 7.74333 24.3972 6.81433C24.3972 5.88532 24.0282 4.99437 23.3713 4.33747C22.7144 3.68057 21.8234 3.31152 20.8944 3.31152C19.9654 3.31152 19.0745 3.68057 18.4175 4.33747C17.7606 4.99437 17.3916 5.88532 17.3916 6.81433C17.3916 7.74333 17.7606 8.63428 18.4175 9.29118C19.0745 9.94808 19.9654 10.3171 20.8944 10.3171V10.3171Z" fill="white" stroke="white" stroke-width="4" stroke-miterlimit="2"/>
<path d="M13.8888 32.7351C14.4462 32.7351 14.9808 32.5137 15.3749 32.1195C15.769 31.7254 15.9905 31.1908 15.9905 30.6334C15.9905 30.076 15.769 29.5414 15.3749 29.1473C14.9808 28.7532 14.4462 28.5317 13.8888 28.5317C13.3314 28.5317 12.7968 28.7532 12.4027 29.1473C12.0085 29.5414 11.7871 30.076 11.7871 30.6334C11.7871 31.1908 12.0085 31.7254 12.4027 32.1195C12.7968 32.5137 13.3314 32.7351 13.8888 32.7351Z" fill="white"/>
<path d="M17.6578 13.7568L14.5893 19.4244L19.7104 23.6417C19.9276 23.8099 20.0817 24.0411 20.1728 24.3003L22.2955 31.3339M14.5893 19.4244L10.7433 24.7767C10.365 25.3301 9.65039 25.5403 9.03389 25.2811L3.38037 22.9272" stroke="white" stroke-width="4" stroke-miterlimit="2" stroke-linecap="round" stroke-linejoin="round"/>
<path d="M30.0017 17.3228H25.0977C24.8455 17.3228 24.5933 17.2598 24.3692 17.1337L22.1204 15.8657C19.3111 14.2194 16.2357 13.0915 13.0341 12.517L10.7783 12.1177C10.463 12.0616 10.1338 12.1177 9.85355 12.2718L5.48206 14.5206" stroke="white" stroke-width="4" stroke-miterlimit="2" stroke-linecap="round" stroke-linejoin="round"/>
</mask>
<g mask="url(#mask0_7775_30)">
<path d="M0.578125 0.509277H34.205V34.1362H0.578125V0.509277Z" fill="#A1A1A1"/>
</g>
</svg>
